<mxfile host="Electron" modified="2023-09-28T09:55:12.803Z" agent="5.0 (Windows NT 10.0; Win64; x64) AppleWebKit/537.36 (KHTML, like Gecko) draw.io/20.3.0 Chrome/104.0.5112.114 Electron/20.1.3 Safari/537.36" etag="LiyRnPyvHJjmuPZfw4cO" compressed="false" version="20.3.0" type="device">
  <diagram name="PZ027A" id="1CP9VX86ncTdAmcYDIcw">
    <mxGraphModel dx="474" dy="286" grid="1" gridSize="2" guides="1" tooltips="1" connect="1" arrows="1" fold="1" page="1" pageScale="1" pageWidth="1169" pageHeight="827" math="0" shadow="0">
      <root>
        <mxCell id="22vkG-h5v2N9dKBLQ-ZE-0" />
        <mxCell id="22vkG-h5v2N9dKBLQ-ZE-135" value="Label" style="" parent="22vkG-h5v2N9dKBLQ-ZE-0" />
        <object label="%LabelLines%&amp;nbsp; &amp;nbsp; &amp;nbsp; &amp;nbsp; &amp;nbsp; &amp;nbsp;%LabelIndex%" placeholders="1" LabelLines="1" LabelIndex="A" id="TYbvjHwfCJMoxMXwvUtJ-5">
          <mxCell style="rounded=0;whiteSpace=wrap;html=1;fillColor=none;strokeColor=#FF0000;fontColor=#FF0000;fontSize=10;align=left;" vertex="1" parent="22vkG-h5v2N9dKBLQ-ZE-135">
            <mxGeometry x="520" y="480" width="80" height="16" as="geometry" />
          </mxCell>
        </object>
        <object label="Symbol" Width="8" Height="6" UoM="mm" id="22vkG-h5v2N9dKBLQ-ZE-138">
          <mxCell style="locked=1;" parent="22vkG-h5v2N9dKBLQ-ZE-0" />
        </object>
        <mxCell id="TYbvjHwfCJMoxMXwvUtJ-0" value="" style="endArrow=none;html=1;rounded=0;" edge="1" parent="22vkG-h5v2N9dKBLQ-ZE-138">
          <mxGeometry width="50" height="50" relative="1" as="geometry">
            <mxPoint x="496" y="464" as="sourcePoint" />
            <mxPoint x="496" y="464" as="targetPoint" />
            <Array as="points">
              <mxPoint x="496" y="400" />
              <mxPoint x="528" y="400" />
              <mxPoint x="528" y="368" />
              <mxPoint x="592" y="368" />
              <mxPoint x="592" y="400" />
              <mxPoint x="624" y="400" />
              <mxPoint x="624" y="464" />
            </Array>
          </mxGeometry>
        </mxCell>
        <mxCell id="22vkG-h5v2N9dKBLQ-ZE-124" value="Connection" style="" parent="22vkG-h5v2N9dKBLQ-ZE-0" />
        <object label="Connection" PipingConnector="Y" LabelConnector="N" SignalConnector="N" Direction="0" AuxiliaryConnector="N" id="TYbvjHwfCJMoxMXwvUtJ-2">
          <mxCell style="vsdxID=1407;fillColor=none;gradientColor=none;shape=stencil(rVFbDsIgEDwNnyQU4glqvcfGblsilmZBS28vZGMsxg9j/JvZmX1kR5g2TLCg0CpE8hdcbR8nYY5CaztPSDZmJEwnTDt4wpH8be6ZL1CcBV39vUxI3KdKh1YbswPTEzuBzlmiVGmKau9zUKM+jlJJQrJBko8QrZ+rrQ5oRJnXyMHBWElhRVx25ebnw/5zVvPFWRm83jxY5zilvf4eSy5xpKZ7AA==);strokeColor=#00ff00;strokeWidth=1;points=[[0.5,0.5,0,0,0]];labelBackgroundColor=none;rounded=0;html=1;whiteSpace=wrap;aspect=fixed;noLabel=1;snapToPoint=1;container=0;fontSize=16;" vertex="1" parent="22vkG-h5v2N9dKBLQ-ZE-124">
            <mxGeometry x="618" y="426" width="12" height="12" as="geometry" />
          </mxCell>
        </object>
        <object label="Connection" PipingConnector="Y" LabelConnector="N" SignalConnector="N" Direction="180" AuxiliaryConnector="N" id="TYbvjHwfCJMoxMXwvUtJ-3">
          <mxCell style="vsdxID=1407;fillColor=none;gradientColor=none;shape=stencil(rVFbDsIgEDwNnyQU4glqvcfGblsilmZBS28vZGMsxg9j/JvZmX1kR5g2TLCg0CpE8hdcbR8nYY5CaztPSDZmJEwnTDt4wpH8be6ZL1CcBV39vUxI3KdKh1YbswPTEzuBzlmiVGmKau9zUKM+jlJJQrJBko8QrZ+rrQ5oRJnXyMHBWElhRVx25ebnw/5zVvPFWRm83jxY5zilvf4eSy5xpKZ7AA==);strokeColor=#00ff00;strokeWidth=1;points=[[0.5,0.5,0,0,0]];labelBackgroundColor=none;rounded=0;html=1;whiteSpace=wrap;aspect=fixed;noLabel=1;snapToPoint=1;container=0;fontSize=16;" vertex="1" parent="22vkG-h5v2N9dKBLQ-ZE-124">
            <mxGeometry x="490" y="426" width="12" height="12" as="geometry" />
          </mxCell>
        </object>
        <object label="Connection" PipingConnector="Y" LabelConnector="N" SignalConnector="N" Direction="90" AuxiliaryConnector="N" id="TYbvjHwfCJMoxMXwvUtJ-4">
          <mxCell style="vsdxID=1407;fillColor=none;gradientColor=none;shape=stencil(rVFbDsIgEDwNnyQU4glqvcfGblsilmZBS28vZGMsxg9j/JvZmX1kR5g2TLCg0CpE8hdcbR8nYY5CaztPSDZmJEwnTDt4wpH8be6ZL1CcBV39vUxI3KdKh1YbswPTEzuBzlmiVGmKau9zUKM+jlJJQrJBko8QrZ+rrQ5oRJnXyMHBWElhRVx25ebnw/5zVvPFWRm83jxY5zilvf4eSy5xpKZ7AA==);strokeColor=#00ff00;strokeWidth=1;points=[[0.5,0.5,0,0,0]];labelBackgroundColor=none;rounded=0;html=1;whiteSpace=wrap;aspect=fixed;noLabel=1;snapToPoint=1;container=0;fontSize=16;" vertex="1" parent="22vkG-h5v2N9dKBLQ-ZE-124">
            <mxGeometry x="554" y="362" width="12" height="12" as="geometry" />
          </mxCell>
        </object>
        <mxCell id="22vkG-h5v2N9dKBLQ-ZE-136" value="Origo" style="" parent="22vkG-h5v2N9dKBLQ-ZE-0" />
        <object label="origo" id="TYbvjHwfCJMoxMXwvUtJ-1">
          <mxCell style="vsdxID=1407;fillColor=none;gradientColor=none;shape=stencil(rVFbDsIgEDwNnyQU4glqvcfGblsilmZBS28vZGMsxg9j/JvZmX1kR5g2TLCg0CpE8hdcbR8nYY5CaztPSDZmJEwnTDt4wpH8be6ZL1CcBV39vUxI3KdKh1YbswPTEzuBzlmiVGmKau9zUKM+jlJJQrJBko8QrZ+rrQ5oRJnXyMHBWElhRVx25ebnw/5zVvPFWRm83jxY5zilvf4eSy5xpKZ7AA==);strokeColor=#ff0000;strokeWidth=1;points=[[0.5,0.5,0,0,0]];labelBackgroundColor=none;rounded=0;html=1;whiteSpace=wrap;aspect=fixed;noLabel=1;snapToPoint=1;" vertex="1" parent="22vkG-h5v2N9dKBLQ-ZE-136">
            <mxGeometry x="556" y="428" width="8" height="8" as="geometry" />
          </mxCell>
        </object>
      </root>
    </mxGraphModel>
  </diagram>
</mxfile>
